<?xml version="1.0"?>
<svg xmlns="http://www.w3.org/2000/svg" height="512px" viewBox="0 -26 512 512" width="512px"><path d="m326 290c0 5.523438-4.476562 10-10 10s-10-4.476562-10-10 4.476562-10 10-10 10 4.476562 10 10zm0 0" fill="#FFFFFF"/><path d="m266 290c0 5.523438-4.476562 10-10 10s-10-4.476562-10-10 4.476562-10 10-10 10 4.476562 10 10zm0 0" fill="#FFFFFF"/><path d="m206 290c0 5.523438-4.476562 10-10 10s-10-4.476562-10-10 4.476562-10 10-10 10 4.476562 10 10zm0 0" fill="#FFFFFF"/><path d="m502 240h-492c-5.523438 0-10 4.476562-10 10v200c0 5.523438 4.476562 10 10 10h492c5.523438 0 10-4.476562 10-10v-200c0-5.523438-4.476562-10-10-10zm-10 80h-126v-60h126zm-326-60h180v180h-180zm-20 0v60h-126v-60zm-126 80h126v100h-126zm346 100v-100h126v100zm0 0" fill="#FFFFFF"/><path d="m449 360h-40c-5.523438 0-10 4.476562-10 10s4.476562 10 10 10h40c5.523438 0 10-4.476562 10-10s-4.476562-10-10-10zm0 0" fill="#FFFFFF"/><path d="m409 300h40c5.523438 0 10-4.476562 10-10s-4.476562-10-10-10h-40c-5.523438 0-10 4.476562-10 10s4.476562 10 10 10zm0 0" fill="#FFFFFF"/><path d="m409 80h40c5.523438 0 10-4.476562 10-10s-4.476562-10-10-10h-40c-5.523438 0-10 4.476562-10 10s4.476562 10 10 10zm0 0" fill="#FFFFFF"/><path d="m103 60h-40c-5.523438 0-10 4.476562-10 10s4.476562 10 10 10h40c5.523438 0 10-4.476562 10-10s-4.476562-10-10-10zm0 0" fill="#FFFFFF"/><path d="m63 300h40c5.523438 0 10-4.476562 10-10s-4.476562-10-10-10h-40c-5.523438 0-10 4.476562-10 10s4.476562 10 10 10zm0 0" fill="#FFFFFF"/><path d="m103 360h-40c-5.523438 0-10 4.476562-10 10s4.476562 10 10 10h40c5.523438 0 10-4.476562 10-10s-4.476562-10-10-10zm0 0" fill="#FFFFFF"/><path d="m316 320h-120c-5.523438 0-10 4.476562-10 10v80c0 5.523438 4.476562 10 10 10h120c5.523438 0 10-4.476562 10-10v-80c0-5.523438-4.476562-10-10-10zm-10 80h-100v-60h100zm0 0" fill="#FFFFFF"/><path d="m236 380h40c5.523438 0 10-4.476562 10-10s-4.476562-10-10-10h-40c-5.523438 0-10 4.476562-10 10s4.476562 10 10 10zm0 0" fill="#FFFFFF"/><path d="m502 0h-146c-5.523438 0-10 4.476562-10 10v100c0 5.523438 4.476562 10 10 10h146c5.523438 0 10-4.476562 10-10v-100c0-5.523438-4.476562-10-10-10zm-10 100h-126v-80h126zm0 0" fill="#FFFFFF"/><path d="m10 120h146c5.523438 0 10-4.476562 10-10v-100c0-5.523438-4.476562-10-10-10h-146c-5.523438 0-10 4.476562-10 10v100c0 5.523438 4.476562 10 10 10zm10-100h126v80h-126zm0 0" fill="#FFFFFF"/><path d="m148.929688 162.929688c-2.859376 2.859374-3.714844 7.160156-2.167969 10.898437 1.546875 3.734375 5.191406 6.171875 9.238281 6.171875h60c5.523438 0 10-4.476562 10-10s-4.476562-10-10-10h-35.855469l40-40h71.714844l40 40h-35.859375c-5.523438 0-10 4.476562-10 10s4.476562 10 10 10h60c4.046875 0 7.691406-2.4375 9.238281-6.171875 1.546875-3.738281.691407-8.039063-2.167969-10.898437l-57.070312-57.074219v-95.855469c0-5.523438-4.476562-10-10-10h-80c-5.523438 0-10 4.476562-10 10v95.855469zm137.070312-142.929688v80h-60v-80zm0 0" fill="#FFFFFF"/><path d="m266 170c0 5.523438-4.476562 10-10 10s-10-4.476562-10-10 4.476562-10 10-10 10 4.476562 10 10zm0 0" fill="#FFFFFF"/></svg>
