<svg id="Capa_1" enable-background="new 0 0 512 512" height="512" viewBox="0 0 512 512" width="512" xmlns="http://www.w3.org/2000/svg"><g><g><path d="m451 15v149.993h-70v-149.993z" fill="#dadfe7"/></g><path d="m450.999 165.483c0-4.731-2.232-9.185-6.021-12.016l-179.999-134.497c-5.324-3.979-12.633-3.979-17.957 0l-179.999 134.497c-3.79 2.832-6.023 7.286-6.023 12.017v331.516c0 8.284 6.716 15 15 15h360c3.979 0 7.793-1.581 10.606-4.394s4.394-6.628 4.394-10.606z" fill="#f6f9f9"/><path d="m436 512c3.979 0 7.793-1.581 10.606-4.394s4.394-6.628 4.394-10.606l-.001-331.517c0-4.731-2.232-9.185-6.021-12.016l-179.999-134.497c-2.662-1.989-5.82-2.984-8.979-2.984v496.014z" fill="#dadfe7"/><path d="m256 49.711 165 123.289v129h-329.999v-129z" fill="#7dd5f4"/><path d="m91 332h330v150h-330z" fill="#7dd5f4"/><path d="m421 302v-129l-165-123.289v252.289z" fill="#0fa7da"/><path d="m256 332h165v150h-165z" fill="#0fa7da"/><path d="m181 497v-60c0-8.284 6.716-15 15-15h45v-45c0-8.284 6.716-15 15-15h45v-45h30v60c0 8.284-6.716 15-15 15h-45v45c0 8.284-6.716 15-15 15h-45v45z" fill="#f6f9f9"/><path d="m271 437v-45h45c8.284 0 15-6.716 15-15v-60h-30v45h-45v90c8.284 0 15-6.716 15-15z" fill="#dadfe7"/><path d="m311 302h-110v-107c0-8.284 6.716-15 15-15h80c8.284 0 15 6.716 15 15z" fill="#dadfe7"/><path d="m296 180h-40v122h55v-107c0-8.284-6.716-15-15-15z" fill="#c6d0da"/><path d="m231 210h50v92h-50z" fill="#c8ffff"/><path d="m256 210h25v92h-25z" fill="#98f9ff"/><path d="m461 30h-90c-8.284 0-15-6.716-15-15s6.716-15 15-15h90c8.284 0 15 6.716 15 15s-6.716 15-15 15z" fill="#e20059"/><path d="m282.991 8.986c-15.893-11.904-38.09-11.904-53.989.005l-217.001 162.751c-7.555 5.666-12.001 14.558-12.001 24.001 0 24.723 28.225 38.835 48.003 24.001l198.997-149.25c5.333-4 12.667-4 18 0l198.997 149.251c19.778 14.834 48.003.721 48.003-24.002 0-9.443-4.446-18.335-12.001-24.001z" fill="#ff8493"/><path d="m499.999 171.742-217.008-162.756c-7.946-5.952-17.468-8.928-26.991-8.928v67.436c3.167 0 6.333 1 9 3l198.997 149.251c19.778 14.834 48.003.721 48.003-24.001 0-9.444-4.446-18.336-12.001-24.002z" fill="#e20059"/></g></svg>