<svg id="Capa_1" enable-background="new 0 0 510 510" height="512" viewBox="0 0 510 510" width="512" xmlns="http://www.w3.org/2000/svg"><g><path d="m175 64h-33v-49c0-8.284-6.716-15-15-15h-112c-8.284 0-15 6.716-15 15v249c0 6.159 5.223 11.255 1.847 15.21 0 21.436 28.153 17.98 28.153-.21 0-14.993 0-58.143 0-72 0-15.043 18.343-22.703 29.023-12.023 5.897 5.897 4.977 11.952 4.977 20.023 0 8.284 6.716 15 15 15s15-6.716 15-15c0-10.94 1.011-26.462-13.764-41.236-13.65-13.651-33.455-17.104-50.236-10.569v-133.195h82v34h-33c-8.284 0-15 6.716-15 15s6.716 15 15 15h96c8.284 0 15-6.716 15-15s-6.716-15-15-15z" fill="#b46e5a"/><path d="m119 510c-8.284 0-15-6.716-15-15v-40c0-8.284 6.716-15 15-15s15 6.716 15 15v40c0 8.284-6.716 15-15 15z" fill="#b46e5a"/><path d="m391 510c-8.284 0-15-6.716-15-15v-40c0-8.284 6.716-15 15-15s15 6.716 15 15v40c0 8.284-6.716 15-15 15z" fill="#82503c"/><path d="m510 279v76c0 63.41-51.59 115-115 115h-280c-63.41 0-115-51.59-115-115 0-11.256 0-77.189 0-91h495c8.28 0 15 6.72 15 15z" fill="#ffe100"/><path d="m510 279v76c0 63.41-51.59 115-115 115h-140v-206h240c8.28 0 15 6.72 15 15z" fill="#ffb400"/><path d="m346 247v144c0 8.28-6.72 15-15 15h-152c-8.28 0-15-6.72-15-15v-144c0-8.28 6.72-15 15-15h152c8.28 0 15 6.72 15 15z" fill="#8cbbfb"/><path d="m346 247v144c0 8.28-6.72 15-15 15h-76v-174h76c8.28 0 15 6.72 15 15z" fill="#7882dc"/><path d="m438 106.45v-35.45c0-8.284-6.716-15-15-15h-24c-8.284 0-15 6.716-15 15s6.716 15 15 15h9v20.45c-18.59 6.28-32 23.87-32 44.55v32c0 8.28 6.72 15 15 15h64c8.28 0 15-6.72 15-15v-32c0-20.68-13.41-38.27-32-44.55z" fill="#7882dc"/><path d="m495 198h-152c-8.284 0-15-6.716-15-15s6.716-15 15-15h152c8.284 0 15 6.716 15 15s-6.716 15-15 15z" fill="#82503c"/></g></svg>