<?xml version="1.0" encoding="iso-8859-1"?>
<!-- Generator: Adobe Illustrator 19.0.0, SVG Export Plug-In . SVG Version: 6.00 Build 0)  -->
<svg version="1.1" id="Layer_1" xmlns="http://www.w3.org/2000/svg" xmlns:xlink="http://www.w3.org/1999/xlink" x="0px" y="0px"
	 viewBox="0 0 511.999 511.999" style="enable-background:new 0 0 511.999 511.999;" xml:space="preserve">
<rect x="63.753" y="0" style="fill:#EE8700;" width="110.504" height="511.703"/>
<g>
	<path style="fill:#AA6100;" d="M63.652,117.088c3.048-0.039,5.968,1.718,7.268,4.687c23.832,54.426,35.438,136.819,34.495,244.894
		c-0.653,74.895-7.456,136.769-8.402,145.035l-15.699-0.001c0-0.308,0.019-0.62,0.056-0.934
		c0.293-2.44,27.373-234.068-17.617-364.295L63.652,117.088z"/>
	<path style="fill:#AA6100;" d="M99.815,511.703c0-0.727,0.103-1.468,0.318-2.201l0,0c0.119-0.404,11.904-41.119,18.605-105.022
		c6.175-58.878,9.176-150.067-11.596-250.133C80.99,28.352,79.57,1.085,79.523,0h15.659c0.242,3.529,2.86,33.519,27.281,151.167
		c21.217,102.214,18.123,195.287,11.793,255.367c-6.058,57.488-15.904,95.763-18.488,105.168H99.815z"/>
	<path style="fill:#AA6100;" d="M174.257,413.42c-29.78,32.621-30.142,97.595-30.142,98.283h-15.646
		c0-3.254,0.462-80.112,40.652-115.114c1.483-1.291,3.315-1.924,5.138-1.923L174.257,413.42z"/>
	<path style="fill:#AA6100;" d="M174.258,284.189c-7.531-6.778-37.433-35.66-37.433-132.894s29.048-124.866,37.433-132.302v23.932
		c-7.844,12.66-21.787,44.191-21.787,108.37c0,64.298,13.995,95.828,21.859,108.467L174.258,284.189z"/>
	<path style="fill:#AA6100;" d="M142.933,0.001c0,7.554-3.818,12.177-5.897,12.177c-2.079,0-5.897-4.623-5.897-12.177h-15.646
		c0,15.602,9.463,27.823,21.543,27.823s21.543-12.222,21.543-27.823H142.933z"/>
</g>
<rect x="200.177" y="0" style="fill:#EE8700;" width="110.504" height="511.703"/>
<g>
	<path style="fill:#AA6100;" d="M310.685,394.615c-3.013,0-5.885-1.75-7.17-4.688c-23.832-54.425-35.439-136.819-34.495-244.894
		C269.673,70.139,276.475,8.265,277.422,0h15.699c0,0.309-0.019,0.62-0.056,0.934c-0.293,2.44-27.371,234.05,17.611,364.279
		L310.685,394.615z"/>
	<path style="fill:#AA6100;" d="M274.619,0c0,0.728-0.103,1.468-0.318,2.201l0,0c-0.118,0.404-11.904,41.119-18.606,105.022
		c-6.175,58.878-9.176,150.067,11.596,250.133c26.152,125.995,27.565,152.92,27.613,154.005c0.005,0.115,0.007,0.228,0.007,0.341
		l-15.661-0.001c-0.242-3.532-2.861-33.527-27.281-151.166c-21.216-102.214-18.123-195.287-11.792-255.367
		C246.236,47.68,256.082,9.405,258.666,0L274.619,0z"/>
	<path style="fill:#AA6100;" d="M200.177,98.283C229.957,65.663,230.32,0.688,230.32,0h15.646c0,3.254-0.462,80.113-40.652,115.113
		c-1.482,1.29-3.313,1.923-5.135,1.923L200.177,98.283z"/>
	<path style="fill:#AA6100;" d="M200.177,468.779c7.844-12.66,21.786-44.19,21.786-108.37c0-88.976-21.517-109.496-21.787-109.751
		v-11.477v-8.574c1.316,1.172,36.76,32.568,37.433,129.801c0.667,96.329-26.419,116.374-37.433,129.78L200.177,468.779z"/>
	<path style="fill:#AA6100;" d="M231.502,511.703c0-7.554,3.818-12.177,5.897-12.177c2.079,0,5.897,4.623,5.897,12.177h15.646
		c0-15.602-9.463-27.823-21.543-27.823c-12.08,0-21.543,12.222-21.543,27.823H231.502z"/>
</g>
<rect x="337.843" y="0" style="fill:#EE8700;" width="110.504" height="511.703"/>
<g>
	<path style="opacity:0.5;fill:#AA6100;enable-background:new    ;" d="M426.039,0.297v398.52c0,48.709-39.487,88.195-88.195,88.195
		l0,0v24.986h110.505V0.297H426.039z"/>
	<path style="opacity:0.5;fill:#AA6100;enable-background:new    ;" d="M288.372,0.297v398.52c0,48.709-39.487,88.195-88.195,88.195
		l0,0v24.986h110.504V0.297H288.372z"/>
	<path style="opacity:0.5;fill:#AA6100;enable-background:new    ;" d="M151.949,0.297v398.52c0,48.709-39.487,88.195-88.195,88.195
		l0,0v24.986h110.505V0.297H151.949z"/>
	<path style="fill:#AA6100;" d="M337.844,117.088c3.05-0.039,5.867,1.719,7.166,4.687c23.832,54.426,35.439,136.819,34.495,244.894
		c-0.653,74.894-7.456,136.767-8.402,145.035h-15.699c0-0.308,0.019-0.62,0.056-0.934c0.293-2.44,27.371-234.05-17.611-364.28
		L337.844,117.088z"/>
	<path style="fill:#AA6100;" d="M369.273,0.001c0.242,3.532,2.861,33.526,27.281,151.166
		c21.217,102.214,18.123,195.287,11.792,255.367c-6.058,57.488-15.904,95.763-18.487,105.168h-15.953
		c0-0.728,0.103-1.468,0.318-2.201l0,0c0.118-0.404,11.904-41.119,18.606-105.022c6.175-58.878,9.176-150.067-11.596-250.133
		C355.08,28.352,353.668,1.426,353.62,0.342c-0.005-0.115-0.007-0.228-0.007-0.341L369.273,0.001z"/>
	<path style="fill:#AA6100;" d="M402.558,511.703c0-3.254,0.462-80.112,40.652-115.114c1.483-1.291,3.315-1.924,5.138-1.923
		l-0.001,18.755c-29.78,32.62-30.143,97.596-30.143,98.284h-15.646V511.703z"/>
	<path style="fill:#AA6100;" d="M448.347,272.521v9.961c-8.324-9.361-37.433-33.953-37.433-131.188s32.413-127.508,37.433-129.615
		v21.244c-7.844,12.659-21.787,44.19-21.787,108.371c0,64.103,13.909,95.636,21.787,108.351V272.521z"/>
	<path style="fill:#AA6100;" d="M417.023,0.001c0,7.554-3.818,12.177-5.897,12.177c-2.079,0-5.897-4.623-5.897-12.177h-15.646
		c0,15.602,9.463,27.823,21.543,27.823c12.08,0,21.543-12.222,21.543-27.823H417.023z"/>
</g>
<g>
	<path style="opacity:0.18;fill:#FFFFFF;enable-background:new    ;" d="M86.033,0.297v180.666c0,6.155-5.036,11.191-11.191,11.191
		l0,0c-6.155,0-11.191-5.036-11.191-11.191V0.297H86.033z"/>
	<path style="opacity:0.18;fill:#FFFFFF;enable-background:new    ;" d="M222.558,0.297v180.666c0,6.155-5.036,11.191-11.191,11.191
		l0,0c-6.155,0-11.191-5.036-11.191-11.191V0.297H222.558z"/>
	<path style="opacity:0.18;fill:#FFFFFF;enable-background:new    ;" d="M360.225,0v180.666c0,6.155-5.036,11.191-11.191,11.191l0,0
		c-6.155,0-11.191-5.036-11.191-11.191V0H360.225z"/>
</g>
<g>
</g>
<g>
</g>
<g>
</g>
<g>
</g>
<g>
</g>
<g>
</g>
<g>
</g>
<g>
</g>
<g>
</g>
<g>
</g>
<g>
</g>
<g>
</g>
<g>
</g>
<g>
</g>
<g>
</g>
</svg>
