<svg id="Capa_1" enable-background="new 0 0 512 512" height="512" viewBox="0 0 512 512" width="512" xmlns="http://www.w3.org/2000/svg"><g><path d="m512 15v209c0 8.28-6.72 15-15 15h-209c-8.266 0-15-6.719-15-15v-209c0-8.28 6.72-15 15-15h209c8.266 0 15 6.719 15 15z" fill="#bee75e"/><g fill="#71c880"><path d="m512 15v209c0 8.28-6.72 15-15 15h-209c-4.14 0-7.89-1.68-10.6-4.4l230.2-230.2c2.72 2.71 4.4 6.46 4.4 10.6z"/><path d="m352 0h80v80h-80z"/><path d="m273 80h79v80h-79z"/></g><path d="m352 160h80v79h-80z" fill="#00864f"/><path d="m432 80h80v80h-80z" fill="#00864f"/><path d="m375 152v208c0 8.28-6.72 15-15 15h-208c-8.266 0-15-6.719-15-15v-208c0-8.28 6.72-15 15-15h208c8.266 0 15 6.719 15 15z" fill="#ffe278"/><path d="m375 152v208c0 8.28-6.72 15-15 15h-208c-4.14 0-7.89-1.68-10.6-4.4l229.2-229.2c2.72 2.71 4.4 6.46 4.4 10.6z" fill="#ffb454"/><path d="m216 231c-8.251 0-15-6.749-15-15 0-8.599 7.366-15.766 16.48-14.93 7.863.816 14.17 7.597 13.45 16.41-.815 7.853-7.383 13.52-14.93 13.52z" fill="#ffb454"/><path d="m296 311c-8.251 0-15-6.749-15-15 0-8.599 7.365-15.766 16.48-14.93 8.343.866 14.282 8.298 13.45 16.41-.815 7.853-7.383 13.52-14.93 13.52z" fill="#ff8659"/><path d="m311 216c0 8.235-6.73 15-15 15-8.225 0-15-6.719-15-15 0-8.603 7.374-15.767 16.48-14.93 7.903.824 13.52 7.43 13.52 14.93z" fill="#ffb454"/><path d="m311 216c0 13.275-15.919 20.027-25.61 10.61l21.22-21.22c2.923 3.007 4.39 6.762 4.39 10.61z" fill="#ff8659"/><path d="m239 288v104l-7 113-112 7h-105c-4.56 0-8.64-2.04-11.39-5.25 0 0 3.37-36.37 3.37-59.2 0-22.84-6.98-55.55-6.98-55.55v-104c0-8.28 6.72-15 15-15h105s16 7 56 7 57.75-3.39 57.75-3.39c3.21 2.75 5.25 6.83 5.25 11.39z" fill="#ec3d93"/><path d="m234.6 277.4-230.2 230.2c-2.72-2.71-4.4-6.46-4.4-10.6v-105l120-119h104c4.14 0 7.89 1.68 10.6 4.4z" fill="#f498c6"/><path d="m239 392v105c0 8.28-6.72 15-15 15h-104z" fill="#b10042"/></g></svg>