<svg id="flat-export" height="512" viewBox="0 0 512 512" width="512" xmlns="http://www.w3.org/2000/svg"><path d="m462.3302 231.16511 21.05341-39.45137a39.20021 39.20021 0 0 0 4.61639-18.45574 39.20013 39.20013 0 0 0 -19.03182-33.61382l-6.07354-3.64418h-30.89464v32l-33.18574 31.40716 63.51593 31.758z" fill="#ffceb6"/><rect fill="#4f5dff" height="104" rx="16" width="64" x="416" y="64"/><path d="m352 282.703 46.814-83.296 63.516 31.758-51.676 96.835h-58.654z" fill="#f78e00"/><path d="m440 200v-22.71469a24 24 0 0 0 -7.37053-17.30493l-11.46405-11.01658a7.77687 7.77687 0 0 0 -10.53569-.22238 7.77687 7.77687 0 0 0 -2.62973 5.8298v28.492l-9.18574 16.344z" fill="#ffceb6"/><path d="m160 282.703-46.814-83.296-63.516 31.758 51.676 96.835h58.654z" fill="#f78e00"/><path d="m49.6698 231.16511-21.05341-39.45137a39.20021 39.20021 0 0 1 -4.61639-18.45574 39.20013 39.20013 0 0 1 19.03182-33.61382l6.07354-3.64418h30.89464v32l33.18574 31.40716-63.51593 31.758z" fill="#ffceb6"/><path d="m434.82007 344.23v32.62988h-50.19995l-40.62012-56.85988v168h-176v-168l-40 56h-72l63.37988-95.06006a55.98948 55.98948 0 0 1 46.59012-24.93994h180.06a55.98948 55.98948 0 0 1 46.59009 24.93994z" fill="#ffa100"/><path d="m264 296 16 96-24 24-24-24 16-96z" fill="#ef5e3b"/><path d="m160 456h120v16a16 16 0 0 1 -16 16h-104z" fill="#3942ed"/><path d="m64 488-40-112h120l40 112z" fill="#4f5dff"/><circle cx="104" cy="432" fill="#788dff" r="16"/><path d="m488 352-96-40-56 144 96 32z" fill="#ffc431"/><path d="m416 408h32v-12.6863a11.31369 11.31369 0 0 1 11.3137-11.3137 11.31372 11.31372 0 0 1 8 3.31371l20.6863 20.68629v24a24 24 0 0 1 -24 24h-32a16 16 0 0 1 -16-16z" fill="#ffceb6"/><path d="m56 80h16v32h-16z" fill="#ffa100"/><path d="m80 112h-32v48a16 16 0 0 0 16 16 16 16 0 0 0 16-16z" fill="#c47220"/><path d="m456 64v8a8 8 0 0 1 -16 0v-8z" fill="#3942ed"/><path d="m248 296-8-16 16-16 16 16-8 16z" fill="#e04f2b"/><path d="m312.62012 256-17.19019 42.97a8.00712 8.00712 0 0 1 -13.08984 2.68994l-26.34009-26.34988-26.34009 26.34985a8.00233 8.00233 0 0 1 -13.08984-2.68991l-17.19019-42.97h17.24024l10.2998 25.76 23.42017-23.42017a8.01538 8.01538 0 0 1 11.31982 0l23.42017 23.42017 10.2998-25.76z" fill="#f78e00"/><path d="m304 144v72a48 48 0 0 1 -48 48 48 48 0 0 1 -48-48v-32l40-40z" fill="#ffceb6"/><circle cx="248" cy="184" fill="#c47220" r="8"/><path d="m280 232h-20.68652a35.08246 35.08246 0 0 1 -24.97071-10.34277l11.31446-11.31446a19.18268 19.18268 0 0 0 13.65625 5.65723h20.68652z" fill="#ffb089"/><circle cx="280" cy="184" fill="#c47220" r="8"/><path d="m304 144 5.06751-2.53375a19.77708 19.77708 0 0 0 10.93249-17.68915 19.77706 19.77706 0 0 0 -19.77707-19.7771h-52.22293a40 40 0 0 0 -40 40v40l40-40z" fill="#c47220"/><path d="m72 200v-22.71469a24 24 0 0 1 7.37053-17.30493l11.46405-11.01658a7.77687 7.77687 0 0 1 10.53569-.22238 7.77687 7.77687 0 0 1 2.62973 5.8298v28.492l9.18574 16.344z" fill="#ffceb6"/><circle cx="64" cy="56" fill="#8be0e8" r="32"/><path d="m64 96a40 40 0 1 1 40-40 40.04584 40.04584 0 0 1 -40 40zm0-64a24 24 0 1 0 24 24 24.0275 24.0275 0 0 0 -24-24z" fill="#ffc431"/></svg>