<svg id="Capa_1" enable-background="new 0 0 64 64" height="512" viewBox="0 0 64 64" width="512" xmlns="http://www.w3.org/2000/svg"><path d="m13 19h48v36c0 3.314-2.686 6-6 6h-42z" fill="#9bc9ff"/><path d="m58 19v33c0 3.314-2.686 6-6 6h-39v3h42c3.314 0 6-2.686 6-6v-36z" fill="#57a4ff"/><path d="m55 13c-3.314 0-6 2.686-6 6v36c0-3.314 2.686-6 6-6s6 2.686 6 6v-36c0-3.314-2.686-6-6-6z" fill="#2488ff"/><path d="m19 27h24v26h-24z" fill="#57a4ff"/><path d="m19 47v6h6c0-3.314-2.686-6-6-6z" fill="#2488ff"/><path d="m40 3h-4-4-4-4-4-4-4-4-5v12h42v-12z" fill="#ffcd00"/><path d="m6 29h-3v26l3-2z" fill="#ff3051"/><path d="m6 53 3 2v-26h-3z" fill="#ffb655"/><path d="m3 55 3 6 3-6-3-2z" fill="#c2b59b"/><path d="m3 29h3 3v-4h-6z" fill="#2488ff"/><path d="m6 19c-1.657 0-3 1.343-3 3v3h6v-3c0-1.657-1.343-3-3-3z" fill="#d1d3d4"/><path d="m30 26v10h-6v2h6v8h8v-2h-6v-16h10v24h-16.08c-.446-3.066-2.854-5.474-5.92-5.92v-18.08h4v-2h-6v28h26v-28zm-10 26v-3.9c1.962.404 3.496 1.938 3.9 3.9z" fill="#f1f2f2"/><g fill="#cca400"><path d="m35 3h2v3h-2z"/><path d="m31 3h2v5h-2z"/><path d="m27 3h2v3h-2z"/><path d="m23 3h2v5h-2z"/><path d="m19 3h2v3h-2z"/><path d="m15 3h2v5h-2z"/><path d="m39 3h2v5h-2z"/><path d="m11 3h2v3h-2z"/><path d="m7 3h2v5h-2z"/></g><path d="m6.891 59.218c-.558-.291-1.224-.291-1.782 0l.891 1.782z" fill="#808285"/></svg>