<svg height="504pt" viewBox="0 -118 504.032 504" width="504pt" xmlns="http://www.w3.org/2000/svg"><path d="m440 11.957031 64 240c-23.609375 0-22.800781-20.636719-39.359375-15.03125l-14.410156-63.128906-12.636719-54.964844-10.800781-47.265625-8.953125-39.375-7.199219-31.441406c12.3125-4.230469 11.75 11.207031 29.359375 11.207031zm0 0" fill="#da4453"/><path d="m362 131.957031-16-120c17.59375 0 46.953125-5.277343 64.640625-11.199219l7.199219 31.441407 8.953125 39.375 10.800781 47.265625 12.636719 54.964844 14.410156 63.128906c-23.6875 8-63.046875 15.03125-86.640625 15.03125zm0 0" fill="#ed5565"/><path d="m346 11.957031 32 240c-23.609375 0-22.800781-20.636719-39.359375-15.03125l-11.039063-118.09375-4.320312-47.1875-3.679688-39.359375-2.960937-31.527344c12.320313-4.238281 11.757813 11.199219 29.359375 11.199219zm0 0" fill="#da4453"/><path d="m327.601562 118.832031 11.039063 118.09375c-23.601563 8-63.039063 15.03125-86.640625 15.03125v-240c17.601562 0 47.039062-5.277343 64.640625-11.199219l2.960937 31.527344 3.679688 39.359375zm0 0" fill="#ed5565"/><path d="m252 187.957031v64c-23.601562 0-22.800781-20.636719-39.359375-15.03125l2.640625-62.96875 2.320312-55.125 2-47.1875 1.679688-39.359375 1.359375-31.527344c12.398437-4.230468 11.757813 11.199219 29.359375 11.199219zm0 0" fill="#da4453"/><path d="m221.28125 32.285156-1.679688 39.359375-2 47.1875-2.320312 55.125-2.640625 62.96875c-23.679687 8-63.039063 15.03125-86.640625 15.03125l8.558594-64 7.441406-56 6.398438-48 5.371093-40 4.230469-32c17.601562 0 46.960938-5.277343 64.640625-11.199219zm0 0" fill="#ed5565"/><path d="m116 71.644531 7.039062-39.359375 5.601563-31.527344c12.398437-4.230468 11.757813 11.199219 29.359375 11.199219l-4.230469 32-5.371093 40-6.398438 48-7.441406 56-8.558594 64c-23.601562 0-22.800781-20.636719-39.359375-15.03125l11.199219-62.96875 9.761718-55.125zm0 0" fill="#da4453"/><path d="m123.039062 32.285156-7.039062 39.359375-8.398438 47.1875-9.761718 55.125-11.199219 62.96875c-23.601563 8-63.039063 15.03125-86.640625 15.03125l64-240c17.601562 0 47.039062-5.277343 64.640625-11.199219zm0 0" fill="#ed5565"/><g fill="#da4453"><path d="m33.273438 191.160156c-2.042969 0-3.785157-1.546875-3.976563-3.625-.207031-2.183594 1.40625-4.144531 3.605469-4.359375 20.785156-1.953125 46.363281-7.183593 63.65625-13 2.128906-.707031 4.371094.421875 5.074218 2.511719.703126 2.085938-.425781 4.359375-2.511718 5.0625-17.824219 6-44.128906 11.375-65.464844 13.390625-.136719.019531-.257812.019531-.382812.019531zm0 0"/><path d="m150.632812 191.085938c-2.039062 0-3.785156-1.558594-3.976562-3.625-.207031-2.199219 1.40625-4.160157 3.601562-4.359376 21.199219-2.015624 46.8125-7.199218 63.742188-12.917968 2.105469-.6875 4.367188.40625 5.070312 2.503906.707032 2.09375-.414062 4.359375-2.503906 5.078125-17.453125 5.890625-43.796875 11.25-65.542968 13.3125-.136719-.007813-.261719.007813-.390626.007813zm0 0"/><path d="m267.992188 191.085938c-2.039063 0-3.785157-1.558594-3.976563-3.625-.207031-2.199219 1.410156-4.160157 3.601563-4.359376 21.039062-2 47.269531-7.3125 63.816406-12.917968 2.09375-.6875 4.367187.40625 5.070312 2.503906.710938 2.09375-.40625 4.359375-2.503906 5.078125-17.328125 5.871094-43.703125 11.234375-65.625 13.3125-.128906-.007813-.253906.007813-.382812.007813zm0 0"/><path d="m385.351562 191.085938c-2.039062 0-3.785156-1.558594-3.976562-3.625-.207031-2.199219 1.410156-4.160157 3.601562-4.359376 21.152344-2.015624 46.664063-7.199218 63.503907-12.917968 10.121093-3.144532 15.207031 1.605468 19.710937 5.796875 1.097656 1.019531 2.234375 2.082031 3.511719 3.113281 1.730469 1.375 2 3.886719.625 5.625-1.382813 1.71875-3.886719 1.984375-5.625.625-1.4375-1.160156-2.734375-2.363281-3.96875-3.503906-4.414063-4.128906-6.414063-5.753906-11.308594-4.203125-17.738281 6.019531-43.984375 11.378906-65.691406 13.441406-.125-.007813-.253906.007813-.382813.007813zm0 0"/><path d="m48.222656 135.007812c-2.03125 0-3.773437-1.546874-3.976562-3.609374-.207032-2.199219 1.402344-4.160157 3.59375-4.375 19.417968-1.890626 42.914062-6.703126 58.480468-11.96875 2.105469-.6875 4.359376.40625 5.070313 2.503906.707031 2.097656-.414063 4.359375-2.503906 5.078125-16.078125 5.441406-40.292969 10.410156-60.261719 12.363281-.128906-.007812-.265625.007812-.402344.007812zm0 0"/><path d="m158.070312 135.007812c-2.03125 0-3.773437-1.546874-3.972656-3.609374-.210937-2.199219 1.398438-4.160157 3.589844-4.375 19.511719-1.890626 43.082031-6.703126 58.632812-11.96875 2.113282-.6875 4.359376.40625 5.070313 2.503906.707031 2.097656-.414063 4.359375-2.503906 5.078125-16.078125 5.441406-40.359375 10.410156-60.421875 12.363281-.136719-.007812-.265625.007812-.394532.007812zm0 0"/><path d="m267.992188 135.085938c-2.023438 0-3.769532-1.527344-3.976563-3.589844-.214844-2.203125 1.382813-4.160156 3.578125-4.378906 19.734375-2.015626 43.335938-6.855469 58.726562-12.0625 2.09375-.6875 4.351563.40625 5.070313 2.503906.707031 2.097656-.421875 4.359375-2.503906 5.078125-15.894531 5.378906-40.199219 10.378906-60.480469 12.441406-.140625.007813-.277344.007813-.414062.007813zm0 0"/><path d="m377.910156 135.085938c-2.023437 0-3.765625-1.527344-3.972656-3.589844-.21875-2.1875 1.375-4.160156 3.574219-4.378906 19.71875-2.015626 43.359375-6.871094 58.808593-12.0625 9.390626-3.199219 14.335938 1.34375 18.703126 5.34375l1.769531 1.59375c1.664062 1.453124 1.832031 3.980468.375 5.636718-1.457031 1.671875-3.984375 1.832032-5.640625.378906l-1.910156-1.707031c-4.007813-3.671875-5.832032-5.34375-10.730469-3.6875-15.976563 5.394531-40.3125 10.394531-60.558594 12.457031-.144531.015626-.28125.015626-.417969.015626zm0 0"/><path d="m61.03125 87.085938c-2.023438 0-3.757812-1.527344-3.96875-3.574219-.230469-2.203125 1.363281-4.167969 3.554688-4.394531 17.976562-1.886719 39.71875-6.421876 54.101562-11.261719 2.105469-.6875 4.371094.4375 5.074219 2.511719.703125 2.09375-.425781 4.359374-2.511719 5.0625-14.882812 5.015624-37.3125 9.703124-55.824219 11.640624-.144531.015626-.28125.015626-.425781.015626zm0 0"/><path d="m164.550781 87.007812c-2.03125 0-3.765625-1.546874-3.976562-3.609374-.214844-2.183594 1.386719-4.160157 3.578125-4.375 17.917968-1.800782 39.6875-6.296876 54.167968-11.167969 2.105469-.6875 4.367188.421875 5.070313 2.511719.707031 2.085937-.421875 4.359374-2.511719 5.0625-14.984375 5.066406-37.464844 9.703124-55.910156 11.542968-.136719.019532-.28125.035156-.417969.035156zm0 0"/><path d="m267.992188 87.007812c-2.03125 0-3.769532-1.546874-3.976563-3.609374-.214844-2.183594 1.382813-4.160157 3.585937-4.375 18.09375-1.816407 39.957032-6.296876 54.398438-11.167969 2.105469-.6875 4.367188.4375 5.070312 2.511719.707032 2.09375-.421874 4.359374-2.511718 5.0625-14.949219 5.046874-37.519532 9.6875-56.160156 11.542968-.140626.019532-.269532.035156-.40625.035156zm0 0"/><path d="m371.433594 87.007812c-2.027344 0-3.761719-1.53125-3.976563-3.59375-.226562-2.183593 1.367188-4.160156 3.558594-4.390624 18.230469-1.90625 40.015625-6.394532 54.183594-11.167969.144531-.050781.28125-.082031.425781-.113281.015625-.015626.03125-.015626.046875-.015626 8.574219-2.734374 13.351563 1.609376 17.214844 5.113282l1.128906 1.007812c1.648437 1.453125 1.808594 3.984375.335937 5.640625-1.472656 1.652344-3.992187 1.8125-5.648437.34375l-1.183594-1.066406c-3.902343-3.558594-5.472656-4.75-9.472656-3.40625-.125.046875-.253906.078125-.390625.109375-.007812 0-.023438 0-.03125 0-14.6875 4.9375-37.082031 9.546875-55.785156 11.503906-.136719.019532-.28125.035156-.40625.035156zm0 0"/><path d="m71.671875 47.007812c-2.015625 0-3.75-1.53125-3.96875-3.578124-.230469-2.199219 1.351563-4.167969 3.554687-4.40625 16.980469-1.800782 36.8125-5.9375 50.503907-10.527344 2.085937-.738282 4.359375.421875 5.0625 2.511718.703125 2.085938-.425781 4.375-2.511719 5.0625-14.199219 4.769532-34.695312 9.046876-52.207031 10.902344-.152344.019532-.289063.035156-.433594.035156zm0 0"/><path d="m169.671875 47.007812c-2.015625 0-3.75-1.53125-3.96875-3.578124-.230469-2.199219 1.351563-4.167969 3.554687-4.40625 17.03125-1.816407 37.429688-6.050782 50.742188-10.527344 2.105469-.691406 4.367188.421875 5.070312 2.511718.707032 2.085938-.421874 4.359376-2.511718 5.0625-14.03125 4.734376-34.613282 9.015626-52.453125 10.902344-.152344.019532-.289063.035156-.433594.035156zm0 0"/><path d="m267.992188 47.007812c-2.015626 0-3.753907-1.53125-3.96875-3.578124-.230469-2.199219 1.351562-4.167969 3.542968-4.40625 17.195313-1.832032 37.585938-6.066407 50.746094-10.527344 2.121094-.671875 4.367188.421875 5.078125 2.511718.707031 2.078126-.414063 4.359376-2.503906 5.0625-13.65625 4.640626-34.742188 9.015626-52.460938 10.902344-.144531.019532-.289062.035156-.433593.035156zm0 0"/><path d="m366.152344 46.925781c-2.023438 0-3.761719-1.527343-3.976563-3.574219-.230469-2.203124 1.359375-4.167968 3.550781-4.410156 16.722657-1.800781 36.960938-6 50.371094-10.453125.183594-.066406.496094-.144531.804688-.1875 8.160156-2.453125 12.671875 1.753907 16.3125 5.128907 1.617187 1.511718 1.707031 4.046874.199218 5.65625-1.503906 1.625-4.03125 1.71875-5.652343.199218-3.671875-3.421875-5.007813-4.4375-8.714844-3.277344-.320313.109376-.640625.167969-.96875.183594-14.503906 4.75-34.734375 8.902344-51.503906 10.703125-.132813.015625-.285157.03125-.421875.03125zm0 0"/></g><path d="m504 251.957031h.03125c-.015625 0-.023438 0-.03125 0-8.800781 0-12.617188-3.542969-17.046875-7.636719-5.144531-4.753906-12.183594-11.28125-24.882813-6.984374-23.445312 7.917968-61.941406 14.621093-84.078124 14.621093-8.792969 0-12.609376-3.542969-17.039063-7.636719-5.144531-4.753906-12.167969-11.28125-24.882813-6.984374-23.375 7.917968-61.871093 14.621093-84.070312 14.621093-8.800781 0-12.617188-3.542969-17.039062-7.636719-5.152344-4.769531-12.199219-11.28125-24.882813-6.984374-23.453125 7.917968-61.957031 14.621093-84.078125 14.621093-8.800781 0-12.617188-3.542969-17.039062-7.636719-5.152344-4.753906-12.175782-11.265624-24.890626-6.984374-23.375 7.917968-61.871093 14.621093-84.070312 14.621093v16c24.03125 0 64.054688-6.933593 89.199219-15.46875 3.5625-1.203125 4.28125-.691406 8.890625 3.574219 5.109375 4.734375 12.839844 11.886719 27.902344 11.886719 23.953124 0 63.96875-6.933594 89.199218-15.472657 3.550782-1.199218 4.28125-.6875 8.886719 3.578126 5.113281 4.734374 12.84375 11.886718 27.90625 11.886718 24.03125 0 64.054687-6.933594 89.199219-15.472656 3.542968-1.183594 4.265625-.703125 8.886718 3.578125 5.113282 4.734375 12.839844 11.886719 27.898438 11.886719 23.960938 0 63.976562-6.933594 89.199219-15.472656 3.527343-1.183594 4.265625-.703126 8.886719 3.578124 5.121093 4.734376 12.847656 11.886719 27.90625 11.886719h.007812v-15.96875zm0 0" fill="#ccd1d9"/></svg>