<?xml version="1.0" encoding="iso-8859-1"?>
<!-- Generator: Adobe Illustrator 21.0.0, SVG Export Plug-In . SVG Version: 6.00 Build 0)  -->
<svg xmlns="http://www.w3.org/2000/svg" xmlns:xlink="http://www.w3.org/1999/xlink" version="1.1" id="Capa_1" x="0px" y="0px" viewBox="0 0 512 512" style="enable-background:new 0 0 512 512;" xml:space="preserve" width="512" height="512">
<g>
	<polygon style="fill:#FFD74A;" points="416.457,416.629 497,416.629 497,336.259 416.457,336.259 416.457,255.888 497,255.888    497,175.518 416.457,175.518 416.457,95.371 497,95.371 497,15 95.543,15 95.543,95.371 15,95.371 15,175.741 95.543,175.741    95.543,255.888 15,255.888 15,336.259 95.543,336.259 95.543,416.629 15,416.629 15,497 416.457,497  "/>
	<polygon style="fill:#FAC004;" points="416.457,497 416.457,416.629 497,416.629 497,336.259 416.457,336.259 416.457,255.888    497,255.888 497,175.518 416.457,175.518 416.457,95.371 497,95.371 497,15 256,15 256,497  "/>
	<path style="fill:#F49F11;" d="M431.457,497v-65.371H497c8.284,0,15-6.716,15-15v-80.371c0-8.284-6.716-15-15-15h-65.543v-50.371   H497c8.284,0,15-6.716,15-15v-80.371c0-8.284-6.716-15-15-15h-65.543v-50.147H497c8.284,0,15-6.716,15-15V15   c0-8.284-6.716-15-15-15H95.543c-8.284,0-15,6.716-15,15v65.371H15c-8.284,0-15,6.716-15,15v80.371c0,8.284,6.716,15,15,15h65.543   v50.147H15c-8.284,0-15,6.716-15,15v80.371c0,8.284,6.716,15,15,15h65.543v50.371H15c-8.284,0-15,6.716-15,15V497   c0,8.284,6.716,15,15,15h401.457C424.741,512,431.457,505.284,431.457,497z M110.543,30H482v50.371h-65.543H110.543V30z    M30,110.371h65.543h305.914v50.147H95.543c-0.851,0-1.68,0.088-2.492,0.224H30V110.371z M110.543,190.741h305.914   c0.851,0,1.68-0.088,2.492-0.224H482v50.371h-65.543H110.543V190.741z M30,321.259v-50.371h65.543h305.914v50.371H95.543H30z    M110.543,351.259h305.914H482v50.371h-65.543H110.543V351.259z M30,482v-50.371h65.543h305.914V482H30z"/>
	<path style="fill:#EE7625;" d="M482,30v50.371h-65.543H256v30h145.457v50.147H256v30.224h160.457c0.851,0,1.68-0.088,2.492-0.224   H482v50.371h-65.543H256v30h145.457v50.371H256v30h160.457H482v50.371h-65.543H256v30h145.457V482H256v30h160.457   c8.284,0,15-6.716,15-15v-65.371H497c8.284,0,15-6.716,15-15v-80.371c0-8.284-6.716-15-15-15h-65.543v-50.371H497   c8.284,0,15-6.716,15-15v-80.371c0-8.284-6.716-15-15-15h-65.543v-50.147H497c8.284,0,15-6.716,15-15V15c0-8.284-6.716-15-15-15   H256v30H482z"/>
</g>















</svg>
