<?xml version="1.0" encoding="iso-8859-1"?>
<!-- Generator: Adobe Illustrator 19.0.0, SVG Export Plug-In . SVG Version: 6.00 Build 0)  -->
<svg version="1.1" id="Layer_1" xmlns="http://www.w3.org/2000/svg" xmlns:xlink="http://www.w3.org/1999/xlink" x="0px" y="0px"
	 viewBox="0 0 512 512" style="enable-background:new 0 0 512 512;" xml:space="preserve">
<path style="fill:#C7AC91;" d="M472.299,435H39.701V47.792c0-4.1,3.324-7.424,7.424-7.424h417.75c4.1,0,7.424,3.324,7.424,7.424V435
	z"/>
<path style="fill:#AF9177;" d="M464.877,40.368H434.72c4.099,0,7.422,3.325,7.422,7.427V439H472.3V47.794
	C472.299,43.693,468.976,40.368,464.877,40.368z"/>
<g>
	<path style="fill:#AEFFFF;" d="M224.282,215.052H91.704c-5.852,0-10.596-4.744-10.596-10.596V89.528
		c0-5.852,4.744-10.595,10.595-10.595h132.578c5.852,0,10.595,4.744,10.595,10.595v114.93
		C234.878,210.309,230.134,215.052,224.282,215.052z"/>
	<path style="fill:#AEFFFF;" d="M420.296,215.052H287.718c-5.852,0-10.595-4.744-10.595-10.595V89.528
		c0-5.852,4.744-10.595,10.595-10.595h132.578c5.852,0,10.596,4.744,10.596,10.596v114.93
		C430.891,210.309,426.147,215.052,420.296,215.052z"/>
	<path style="fill:#AEFFFF;" d="M224.282,384.147H91.704c-5.852,0-10.596-4.744-10.596-10.596v-114.93
		c0-5.852,4.744-10.595,10.595-10.595h132.578c5.852,0,10.595,4.744,10.595,10.595v114.93
		C234.878,379.404,230.134,384.147,224.282,384.147z"/>
	<path style="fill:#AEFFFF;" d="M420.296,384.147H287.718c-5.852,0-10.595-4.744-10.595-10.595v-114.93
		c0-5.852,4.744-10.595,10.595-10.595h132.578c5.852,0,10.596,4.744,10.596,10.596v114.93
		C430.891,379.404,426.147,384.147,420.296,384.147z"/>
</g>
<g>
	<path style="fill:#84F1F7;" d="M420.299,248.026h-19.566v136.121h19.566c5.85,0,10.592-4.745,10.592-10.599V258.626
		C430.891,252.771,426.149,248.026,420.299,248.026z"/>
	<path style="fill:#84F1F7;" d="M420.299,78.933h-19.566v136.121h19.566c5.85,0,10.592-4.745,10.592-10.599V89.532
		C430.891,83.678,426.149,78.933,420.299,78.933z"/>
	<path style="fill:#84F1F7;" d="M224.286,248.026H204.72v136.121h19.566c5.85,0,10.592-4.745,10.592-10.599V258.626
		C234.878,252.771,230.136,248.026,224.286,248.026z"/>
	<path style="fill:#84F1F7;" d="M224.286,78.933H204.72v136.121h19.566c5.85,0,10.592-4.745,10.592-10.599V89.532
		C234.878,83.678,230.136,78.933,224.286,78.933z"/>
</g>
<path style="fill:#FFA227;" d="M504.576,471.632H7.424c-4.1,0-7.424-3.324-7.424-7.424v-34.071c0-4.1,3.324-7.424,7.424-7.424
	h497.152c4.1,0,7.424,3.324,7.424,7.424v34.071C512,468.309,508.676,471.632,504.576,471.632z"/>
<path style="fill:#F78B0B;" d="M504.578,422.713h-22.736v48.92h22.736c4.099,0,7.422-3.325,7.422-7.427v-34.066
	C512,426.038,508.677,422.713,504.578,422.713z"/>
<g>
</g>
<g>
</g>
<g>
</g>
<g>
</g>
<g>
</g>
<g>
</g>
<g>
</g>
<g>
</g>
<g>
</g>
<g>
</g>
<g>
</g>
<g>
</g>
<g>
</g>
<g>
</g>
<g>
</g>
</svg>
